<svg width="168" height="50" viewBox="0 0 168 50" fill="none" xmlns="http://www.w3.org/2000/svg">
<rect width="50" height="50" rx="25" fill="white"/>
<g clip-path="url(#clip0)">
<path d="M34.5965 42.7108L35.4584 44.206C36.9238 43.4389 38.2928 42.5153 39.5448 41.455L38.6731 39.9427L37.5491 37.9918L37.4199 37.767L35.0159 33.5952L34.8842 33.3656L25.0048 16.2205L15.1254 33.3668L15.1071 33.3973L12.5897 37.767L12.5605 37.8171L11.3353 39.9439L10.5417 41.3206C11.7851 42.3932 13.1469 43.3301 14.6061 44.1107L15.4131 42.7108L16.5834 40.6793C17.1783 40.992 17.7879 41.2681 18.4084 41.5112L18.3645 41.5882C20.4248 42.3846 22.6642 42.822 25.0048 42.822C26.4275 42.822 27.8124 42.6595 29.1424 42.3541C30.6345 42.0243 32.0974 41.5075 33.4933 40.7966L33.4153 40.661L33.4933 40.7966L34.5965 42.7108ZM19.0411 36.4147L19.1033 36.3072L25.0048 26.0641L30.9064 36.3072L31.0332 36.5271L31.8865 38.0089L31.0332 36.5271C30.4261 36.8215 29.797 37.0682 29.1558 37.2674L29.1497 37.2564C28.6938 37.403 28.2293 37.5227 27.7575 37.6204C26.525 37.8611 25.2511 37.9307 23.965 37.8171C22.2205 37.6619 20.5576 37.1818 19.0411 36.4147L16.6432 40.5754L19.0411 36.4147Z" fill="url(#paint0_linear)"/>
<path d="M12.891 32.1147L12.9093 32.0841L13.3726 31.2803C12.1303 29.2012 11.4659 26.8191 11.4659 24.3319C11.4659 20.7074 12.874 17.3004 15.4316 14.7375C17.9892 12.1746 21.3892 10.7636 25.0062 10.7636C28.6232 10.7636 32.0232 12.1746 34.5809 14.7375C37.1385 17.3004 38.5465 20.7074 38.5465 24.3319C38.5465 26.8178 37.8809 29.2012 36.6399 31.2803L37.1031 32.0841L37.2348 32.3138L39.3426 35.9725C41.9161 32.7939 43.4582 28.7443 43.4582 24.3331C43.457 14.1206 35.1953 5.8418 25.005 5.8418C14.8147 5.8418 6.55304 14.1206 6.55304 24.3319C6.55304 28.7431 8.09517 32.7939 10.6686 35.9713L12.891 32.1147Z" fill="url(#paint1_linear)"/>
</g>
<path d="M66.8093 35.4382C64.807 35.4382 63.3316 34.9421 62.3832 33.9498C61.4611 32.9576 61 31.3909 61 29.2497C61 27.0563 61.5533 25.5157 62.6598 24.6279C63.7927 23.7401 65.7291 23.2962 68.4691 23.2962C69.1015 23.2962 69.7469 23.3354 70.4056 23.4137C71.0906 23.4659 71.6834 23.5443 72.184 23.6487V22.2387C72.184 21.612 71.9073 21.155 71.3541 20.8678C70.8271 20.5545 70.0104 20.3978 68.9039 20.3978C67.6392 20.3978 66.5064 20.437 65.5052 20.5153C64.5304 20.5675 63.6346 20.672 62.8179 20.8286V16.011C63.7927 15.776 64.9256 15.6063 66.2165 15.5018C67.5075 15.3713 69.0092 15.306 70.7217 15.306C73.1456 15.306 74.9767 15.8413 76.2149 16.9119C77.4795 17.9825 78.1118 19.5622 78.1118 21.6512V35.0465H72.5792L72.3816 33.4015H72.263C71.4463 34.0282 70.5505 34.5243 69.5757 34.8898C68.6009 35.2554 67.6788 35.4382 66.8093 35.4382ZM69.2595 27.1738C68.2057 27.1738 67.4943 27.2913 67.1255 27.5263C66.7566 27.7352 66.5722 28.1922 66.5722 28.8972C66.5722 29.55 66.7171 30.0069 67.0069 30.2681C67.3231 30.5031 67.8632 30.6206 68.6272 30.6206C69.2068 30.6206 69.8128 30.5422 70.4451 30.3856C71.0774 30.2289 71.657 30.033 72.184 29.798V27.4088C71.8678 27.3305 71.4726 27.2783 70.9984 27.2521C70.5241 27.1999 69.9445 27.1738 69.2595 27.1738Z" fill="white"/>
<path d="M87.3686 41H81.4407V15.6977H86.6573L86.9734 17.4994H87.0525C87.7638 16.7683 88.6069 16.2199 89.5817 15.8543C90.5829 15.4888 91.7157 15.306 92.9804 15.306C95.5623 15.306 97.3934 16.0763 98.4735 17.6169C99.5801 19.1575 100.133 21.7426 100.133 25.3721C100.133 28.8972 99.4352 31.4561 98.0388 33.049C96.6688 34.6418 94.4294 35.4382 91.3206 35.4382C90.5565 35.4382 89.832 35.386 89.147 35.2815C88.4883 35.2032 87.8955 35.0857 87.3686 34.929V41ZM94.2055 25.3721C94.2055 23.4137 93.9947 22.1342 93.5732 21.5337C93.1516 20.907 92.2427 20.5936 90.8463 20.5936C90.1613 20.5936 89.5158 20.6459 88.9099 20.7503C88.3303 20.8548 87.8165 21.0114 87.3686 21.2203V29.4847C87.7638 29.6675 88.2117 29.798 88.7123 29.8764C89.2392 29.9547 89.832 29.9939 90.4906 29.9939C92.0978 29.9939 93.1121 29.7197 93.5336 29.1714C93.9815 28.5969 94.2055 27.3305 94.2055 25.3721Z" fill="white"/>
<path d="M121.395 25.3721C121.395 29.0016 120.658 31.5867 119.182 33.1273C117.707 34.6679 115.23 35.4382 111.753 35.4382C108.275 35.4382 105.798 34.6679 104.323 33.1273C102.848 31.5867 102.11 29.0016 102.11 25.3721C102.11 21.7426 102.848 19.1575 104.323 17.6169C105.798 16.0763 108.275 15.306 111.753 15.306C115.23 15.306 117.707 16.0763 119.182 17.6169C120.658 19.1575 121.395 21.7426 121.395 25.3721ZM108.038 25.2938C108.038 27.2783 108.249 28.5577 108.67 29.1322C109.118 29.7066 110.146 29.9939 111.753 29.9939C113.36 29.9939 114.374 29.7066 114.796 29.1322C115.244 28.5577 115.467 27.2783 115.467 25.2938C115.467 23.3093 115.244 22.0298 114.796 21.4553C114.374 20.8809 113.36 20.5936 111.753 20.5936C110.146 20.5936 109.118 20.8809 108.67 21.4553C108.249 22.0298 108.038 23.3093 108.038 25.2938Z" fill="white"/>
<path d="M130.172 13.5826H123.928V9H130.172V13.5826ZM130.014 35.0465H124.086V15.6977H130.014V35.0465Z" fill="white"/>
<path d="M139.353 35.0465H133.426V15.6977H138.563L138.8 17.7344H138.919C139.762 16.8727 140.671 16.2591 141.646 15.8935C142.647 15.5018 143.845 15.306 145.242 15.306C147.455 15.306 149.128 15.8413 150.261 16.9119C151.394 17.9825 151.96 19.5622 151.96 21.6512V35.0465H146.032V22.4345C146.032 21.8339 145.782 21.377 145.281 21.0636C144.807 20.7503 144.096 20.5936 143.147 20.5936C142.436 20.5936 141.751 20.672 141.092 20.8286C140.434 20.9853 139.854 21.2073 139.353 21.4945V35.0465Z" fill="white"/>
<path d="M156.302 20.5936H154.01V15.6977H156.5L157.251 11.1934H162.23V15.6977H167.763V20.5936H162.23V28.1138C162.23 28.845 162.415 29.3411 162.783 29.6022C163.179 29.8372 163.943 29.9547 165.076 29.9547C165.471 29.9547 165.958 29.9286 166.538 29.8764C167.117 29.798 167.605 29.7197 168 29.6414V34.6548C167.578 34.8376 166.92 35.0073 166.024 35.164C165.155 35.3468 164.377 35.4382 163.692 35.4382C161.058 35.4382 159.161 34.8898 158.002 33.7931C156.869 32.6703 156.302 30.8556 156.302 28.3488V20.5936Z" fill="white"/>
<defs>
<linearGradient id="paint0_linear" x1="25.0432" y1="16.2205" x2="25.0432" y2="44.206" gradientUnits="userSpaceOnUse">
<stop stop-color="#5B5B5B"/>
<stop offset="1" stop-color="#121429"/>
</linearGradient>
<linearGradient id="paint1_linear" x1="25.0056" y1="5.8418" x2="25.0056" y2="35.9725" gradientUnits="userSpaceOnUse">
<stop stop-color="#5B5B5B"/>
<stop offset="1" stop-color="#121429"/>
</linearGradient>
<clipPath id="clip0">
<rect width="36.9039" height="38.3655" fill="white" transform="translate(6.55304 5.8418)"/>
</clipPath>
</defs>
</svg>
